<svg xmlns="http://www.w3.org/2000/svg" viewBox="0 0 100 100">
  <!-- Background circle -->
  <circle cx="50" cy="50" r="48" fill="#DC2626" stroke="#991B1B" stroke-width="2"/>
  
  <!-- Handshake/Partnership icon - simplified -->
  <g transform="translate(50, 50)">
    <!-- Left hand -->
    <path d="M -20 -5 L -15 -15 L -10 -10 L -5 -15 L 0 -10 L 5 -15 L 10 -10 L 15 -15 L 20 -5 L 20 5 L 15 10 L 10 5 L 5 10 L 0 5 L -5 10 L -10 5 L -15 10 Z" 
          fill="white" opacity="0.9"/>
    
    <!-- Right hand (mirrored) -->
    <path d="M 20 -5 L 15 -15 L 10 -10 L 5 -15 L 0 -10 L -5 -15 L -10 -10 L -15 -15 L -20 -5 L -20 5 L -15 10 L -10 5 L -5 10 L 0 5 L 5 10 L 10 5 L 15 10 Z" 
          fill="white" opacity="0.9"/>
    
    <!-- Connection point -->
    <circle cx="0" cy="0" r="3" fill="white"/>
  </g>
  
  <!-- Alternative: Simple partnership/trust symbol -->
  <!-- Two overlapping circles or a handshake icon -->
</svg>
