<svg xmlns="http://www.w3.org/2000/svg" viewBox="0 0 24 24" fill="none" stroke="currentColor" stroke-width="2" stroke-linecap="round" stroke-linejoin="round">
  <path d="M11 12h2a2 2 0 1 0 0-4h-3c-.6 0-1.1.2-1.4.6L3 14"></path>
  <path d="M7 18h1a2 2 0 0 0 0-4H5c-.6 0-1.1.2-1.4.6L3 14"></path>
  <path d="M13 12h2a2 2 0 1 1 0-4h-3c-.6 0-1.1.2-1.4.6L21 10"></path>
  <path d="M17 18h1a2 2 0 0 1 0-4h-3c-.6 0-1.1.2-1.4.6L21 10"></path>
  <path d="M3 14l4-4"></path>
  <path d="M21 10l-4 4"></path>
  <path d="M11 12l-2 2"></path>
  <path d="M13 12l2 2"></path>
</svg>
